# Blender v2.79 (sub 0) OBJ File: 'block.blend'
# www.blender.org
mtllib block.mtl
o Cube
v -2.176347 3.247981 -2.176347
v -2.176347 3.247981 2.176347
v 2.176348 3.247981 2.176347
v 2.176347 3.247981 -2.176348
v -2.176348 3.845716 -2.176346
v -2.176346 3.845716 2.176348
v 2.176348 3.845715 2.176347
v 2.176347 3.845715 -2.176347
v -2.030367 3.146147 -2.030367
v -2.030367 3.146147 2.030368
v 2.030367 3.146147 -2.030368
v 2.030368 3.146147 2.030367
v -1.761027 3.146147 -1.761027
v -1.761027 3.146147 1.761027
v 1.761027 3.146147 -1.761027
v 1.761027 3.146147 1.761027
v -1.761027 2.503574 -1.761027
v -1.761027 2.503574 1.761027
v 1.761027 2.503574 -1.761027
v 1.761027 2.503574 1.761027
v -2.171938 2.247731 -2.171938
v -2.171938 2.247731 2.171938
v 2.171937 2.247731 -2.171938
v 2.171938 2.247731 2.171937
v -2.171938 2.014370 -2.171938
v -2.171938 2.014370 2.171938
v 2.171937 2.014370 -2.171938
v 2.171938 2.014370 2.171937
v -2.172472 0.200121 -2.172472
v -2.172472 0.200121 2.172472
v 2.172471 0.200120 -2.172472
v 2.172472 0.200120 2.172472
v -2.172472 0.058979 -2.172472
v -2.172472 0.058979 2.172472
v 2.172471 0.058978 -2.172472
v 2.172472 0.058978 2.172472
v -2.197824 0.012710 -2.197824
v -2.197824 0.012710 2.197824
v 2.197823 0.012709 -2.197824
v 2.197824 0.012709 2.197824
v -2.197824 0.005103 -2.197824
v -2.197824 0.005103 2.197824
v 2.197823 0.005103 -2.197824
v 2.197824 0.005103 2.197824
v -1.956891 4.006609 -1.956889
v -1.956889 4.006609 1.956891
v 1.956890 4.006609 -1.956890
v 1.956891 4.006609 1.956889
v -2.059856 1.815145 -1.460064
v -1.460064 1.815145 -2.059856
v -2.191662 2.030267 -2.191662
v -2.059856 1.815145 1.460064
v -2.191662 2.030267 2.191662
v -1.460064 1.815145 2.059856
v 1.460064 1.815144 -2.059856
v 2.059855 1.815144 -1.460065
v 2.191662 2.030267 -2.191663
v 1.460065 1.815144 2.059856
v 2.191663 2.030267 2.191662
v 2.059856 1.815144 1.460064
v -2.111614 0.273126 -2.111614
v -1.460064 0.397536 -2.059856
v -2.059856 0.397536 -1.460064
v -2.059856 0.397536 1.460064
v -1.460064 0.397536 2.059856
v -2.111614 0.273126 2.111614
v 2.111613 0.273126 -2.111614
v 2.059856 0.397536 -1.460065
v 1.460064 0.397536 -2.059856
v 1.460065 0.397536 2.059856
v 2.059856 0.397536 1.460064
v 2.111614 0.273126 2.111614
v -2.059856 1.815145 1.460064
v -2.059856 1.815145 -1.460064
v -1.460064 1.815145 -2.059856
v 1.460064 1.815144 -2.059856
v 1.460065 1.815144 2.059856
v -1.460064 1.815145 2.059856
v 2.059855 1.815144 -1.460065
v 2.059856 1.815144 1.460064
v -2.059856 0.397536 -1.460064
v -2.059856 0.397536 1.460064
v 1.460064 0.397536 -2.059856
v -1.460064 0.397536 -2.059856
v -1.460064 0.397536 2.059856
v 1.460065 0.397536 2.059856
v 2.059856 0.397536 1.460064
v 2.059856 0.397536 -1.460065
v -1.918294 1.672444 1.359722
v -1.918294 1.672444 -1.359722
v -1.359722 1.672444 -1.918294
v 1.359722 1.672444 -1.918295
v 1.359723 1.672444 1.918294
v -1.359722 1.672444 1.918294
v 1.918294 1.672444 -1.359723
v 1.918295 1.672444 1.359722
v -1.918294 0.479206 -1.359722
v -1.918294 0.479206 1.359723
v 1.359722 0.479205 -1.918295
v -1.359722 0.479206 -1.918294
v -1.359722 0.479206 1.918294
v 1.359723 0.479205 1.918294
v 1.918295 0.479205 1.359722
v 1.918294 0.479205 -1.359723
vn -0.5721 -0.8202 0.0000
vn 0.5913 0.8065 -0.0000
vn -1.0000 0.0000 0.0000
vn 0.0000 -0.0000 1.0000
vn 1.0000 -0.0000 -0.0000
vn -0.0000 0.0000 -1.0000
vn 0.0000 -1.0000 -0.0000
vn 0.5721 -0.8202 -0.0000
vn -0.0000 -0.8202 0.5721
vn -0.0000 -0.8202 -0.5721
vn 0.5285 0.8489 -0.0000
vn -0.0000 0.8489 -0.5285
vn 0.0000 0.8489 0.5285
vn -0.5285 0.8489 0.0000
vn -0.7681 0.6403 0.0000
vn 0.6275 0.7786 0.0000
vn -0.6275 0.7786 0.0000
vn 0.7681 0.6403 -0.0000
vn -0.0000 0.7786 -0.6275
vn 0.0000 0.7786 0.6275
vn -0.0000 0.6403 -0.7681
vn 0.0000 0.6403 0.7681
vn -0.0000 0.4805 -0.8770
vn 0.0000 0.4805 0.8770
vn -0.8770 0.4805 0.0000
vn 0.8770 0.4805 -0.0000
vn 0.0000 1.0000 0.0000
vn 0.0000 0.8065 -0.5913
vn 0.0000 0.8065 0.5913
vn -0.5913 0.8065 0.0000
vn -0.2350 -0.9432 -0.2350
vn -0.2350 -0.9432 0.2350
vn 0.2350 -0.9432 -0.2350
vn 0.2350 -0.9432 0.2350
vn -0.1716 0.9701 -0.1716
vn -0.1716 0.9701 0.1716
vn 0.1716 0.9701 -0.1716
vn 0.1716 0.9701 0.1716
vn -0.8527 -0.5224 0.0000
vn -0.0000 -0.5224 -0.8527
vn 0.0000 -0.5224 0.8527
vn 0.8527 -0.5224 -0.0000
vn -0.9233 0.3841 0.0000
vn -0.0000 0.3841 -0.9233
vn 0.0000 0.3841 0.9233
vn 0.9233 0.3841 -0.0000
vn 0.7071 0.0000 -0.7071
vn 0.7071 0.0000 0.7071
vn -0.7071 0.0000 -0.7071
vn -0.7071 0.0000 0.7071
vn 0.0000 0.8662 0.4997
vn 0.8158 0.0000 -0.5783
vn 0.0000 0.8662 -0.4997
vn -0.5783 -0.0000 0.8158
vn -0.5783 -0.0000 -0.8158
vn 0.4997 0.8662 -0.0000
vn -0.7099 -0.7043 0.0000
vn 0.8158 0.0000 0.5783
vn -0.8158 0.0000 -0.5783
vn -0.0000 -0.7043 -0.7099
vn 0.5783 0.0000 0.8158
vn 0.0000 -0.7043 0.7099
vn -0.8158 0.0000 0.5783
vn 0.7099 -0.7043 -0.0000
vn 0.5783 -0.0000 -0.8158
vn -0.4997 0.8662 0.0000
usemtl Material
s off
f 1//1 9//1 10//1 2//1
f 8//2 47//2 48//2 7//2
f 1//3 2//3 6//3 5//3
f 2//4 3//4 7//4 6//4
f 3//5 4//5 8//5 7//5
f 5//6 8//6 4//6 1//6
f 10//7 14//7 16//7 12//7
f 3//8 12//8 11//8 4//8
f 2//9 10//9 12//9 3//9
f 4//10 11//10 9//10 1//10
f 14//4 18//4 20//4 16//4
f 9//7 13//7 14//7 10//7
f 12//7 16//7 15//7 11//7
f 11//7 15//7 13//7 9//7
f 20//11 24//11 23//11 19//11
f 13//3 17//3 18//3 14//3
f 16//5 20//5 19//5 15//5
f 15//6 19//6 17//6 13//6
f 22//4 26//4 28//4 24//4
f 19//12 23//12 21//12 17//12
f 18//13 22//13 24//13 20//13
f 17//14 21//14 22//14 18//14
f 65//4 85//4 78//4 54//4
f 21//3 25//3 26//3 22//3
f 24//5 28//5 27//5 23//5
f 23//6 27//6 25//6 21//6
f 61//15 29//15 30//15 66//15
f 64//4 82//4 81//4 63//4
f 25//16 51//16 53//16 26//16
f 28//17 59//17 57//17 27//17
f 72//18 32//18 31//18 67//18
f 52//4 73//4 82//4 64//4
f 26//19 53//19 59//19 28//19
f 27//20 57//20 51//20 25//20
f 32//5 36//5 35//5 31//5
f 67//21 31//21 29//21 61//21
f 66//22 30//22 32//22 72//22
f 35//23 39//23 37//23 33//23
f 31//6 35//6 33//6 29//6
f 30//4 34//4 36//4 32//4
f 29//3 33//3 34//3 30//3
f 38//4 42//4 44//4 40//4
f 34//24 38//24 40//24 36//24
f 33//25 37//25 38//25 34//25
f 36//26 40//26 39//26 35//26
f 41//7 43//7 44//7 42//7
f 37//3 41//3 42//3 38//3
f 40//5 44//5 43//5 39//5
f 39//6 43//6 41//6 37//6
f 45//27 46//27 48//27 47//27
f 5//28 45//28 47//28 8//28
f 7//29 48//29 46//29 6//29
f 6//30 46//30 45//30 5//30
f 49//31 51//31 50//31
f 52//32 54//32 53//32
f 55//33 57//33 56//33
f 58//34 60//34 59//34
f 61//35 63//35 62//35
f 64//36 66//36 65//36
f 67//37 69//37 68//37
f 70//38 72//38 71//38
f 51//39 49//39 52//39 53//39
f 50//40 51//40 57//40 55//40
f 53//41 54//41 58//41 59//41
f 59//42 60//42 56//42 57//42
f 63//43 61//43 66//43 64//43
f 61//44 62//44 69//44 67//44
f 65//45 66//45 72//45 70//45
f 71//46 72//46 67//46 68//46
f 55//47 56//47 68//47 69//47
f 70//48 71//48 60//48 58//48
f 49//49 50//49 62//49 63//49
f 64//50 65//50 54//50 52//50
f 60//4 80//4 79//4 56//4
f 86//51 102//51 101//51 85//51
f 75//52 91//52 100//52 84//52
f 84//53 100//53 99//53 83//53
f 81//54 97//54 90//54 74//54
f 49//4 74//4 73//4 52//4
f 69//4 83//4 76//4 55//4
f 55//4 76//4 75//4 50//4
f 56//4 79//4 88//4 68//4
f 58//4 77//4 86//4 70//4
f 62//4 84//4 83//4 69//4
f 71//4 87//4 80//4 60//4
f 70//4 86//4 85//4 65//4
f 54//4 78//4 77//4 58//4
f 63//4 81//4 74//4 49//4
f 50//4 75//4 84//4 62//4
f 68//4 88//4 87//4 71//4
f 92//6 99//6 100//6 91//6
f 96//5 103//5 104//5 95//5
f 94//4 101//4 102//4 93//4
f 90//3 97//3 98//3 89//3
f 73//55 89//55 98//55 82//55
f 88//56 104//56 103//56 87//56
f 74//57 90//57 89//57 73//57
f 85//58 101//58 94//58 78//58
f 83//59 99//59 92//59 76//59
f 76//60 92//60 91//60 75//60
f 79//61 95//61 104//61 88//61
f 78//62 94//62 93//62 77//62
f 77//63 93//63 102//63 86//63
f 80//64 96//64 95//64 79//64
f 87//65 103//65 96//65 80//65
f 82//66 98//66 97//66 81//66
