# Blender v2.79 (sub 0) OBJ File: 'dummy.blend'
# www.blender.org
mtllib dummy.mtl
o Cube_Cube.001
v -1.000000 -0.040570 -1.000000
v -1.000000 6.986015 -1.000000
v 1.000000 -0.040570 -1.000000
v 1.000000 6.986015 -1.000000
v -1.000000 5.910517 -1.000000
v -1.000000 4.739419 -1.000000
v -1.000000 3.568322 -1.000000
v -1.000000 2.397224 -1.000000
v -1.000000 1.226127 -1.000000
v 1.000000 5.910517 -1.000000
v 1.000000 4.739419 -1.000000
v 1.000000 3.568322 -1.000000
v 1.000000 2.397224 -1.000000
v 1.000000 1.226127 -1.000000
v -1.000000 4.324350 -2.218514
v -1.000000 3.153253 -2.218514
v 1.000000 4.324350 -2.218514
v 1.000000 3.153253 -2.218514
v 1.932408 6.986015 -1.000000
v 1.932408 5.910517 -1.000000
v -1.000000 0.000000 0.000000
v -1.000000 7.000000 0.000000
v -1.000000 -0.040570 1.000000
v -1.000000 6.986015 1.000000
v 1.000000 0.000000 0.000000
v 1.000000 7.000000 0.000000
v 1.000000 -0.040570 1.000000
v 1.000000 6.986015 1.000000
v -1.000000 1.000000 0.000000
v -1.000000 2.000000 0.000000
v -1.000000 4.000000 0.000000
v -1.000000 5.000000 0.000000
v -1.000000 6.000000 0.000000
v -1.000000 5.910517 1.000000
v -1.000000 4.739419 1.000000
v -1.000000 3.568322 1.000000
v -1.000000 2.397224 1.000000
v -1.000000 1.226127 1.000000
v 1.000000 5.910517 1.000000
v 1.000000 4.739419 1.000000
v 1.000000 3.568322 1.000000
v 1.000000 2.397224 1.000000
v 1.000000 1.226127 1.000000
v 1.000000 6.000000 0.000000
v 1.000000 5.000000 0.000000
v 1.000000 4.000000 0.000000
v 1.000000 2.000000 0.000000
v 1.000000 1.000000 0.000000
v -1.000000 4.324350 2.218514
v -1.000000 3.153253 2.218514
v 1.000000 4.324350 2.218514
v 1.000000 3.153253 2.218514
v 1.932408 6.986015 1.000000
v 1.932408 7.000000 0.000000
v 1.932408 5.910517 1.000000
v 1.932408 6.000000 0.000000
vn -1.0000 0.0000 0.0000
vn 0.0000 0.0000 -1.0000
vn 0.0000 0.9999 -0.0140
vn 1.0000 0.0000 0.0000
vn 0.0000 -0.6092 0.7930
vn 0.0000 0.6092 -0.7930
vn 0.0000 -0.9960 0.0891
vn 0.0000 0.0000 1.0000
vn 0.0000 0.9999 0.0140
vn 0.0000 -0.6092 -0.7930
vn 0.0000 0.6092 0.7930
vn 0.0000 -0.9960 -0.0891
usemtl None
s off
f 33//1 22//1 2//1 5//1
f 5//2 2//2 4//2 10//2
f 4//3 26//3 54//3 19//3
f 16//2 15//2 17//2 18//2
f 4//3 2//3 22//3 26//3
f 3//4 14//4 48//4 25//4
f 14//4 13//4 47//4 48//4
f 13//4 12//4 46//4 47//4
f 12//4 11//4 45//4 46//4
f 11//4 10//4 44//4 45//4
f 1//2 9//2 14//2 3//2
f 9//2 8//2 13//2 14//2
f 8//2 7//2 12//2 13//2
f 7//2 6//2 11//2 12//2
f 10//4 11//4 18//4 17//4
f 21//1 29//1 9//1 1//1
f 29//1 30//1 8//1 9//1
f 30//1 31//1 7//1 8//1
f 31//1 32//1 6//1 7//1
f 32//1 33//1 5//1 6//1
f 11//5 6//5 16//5 18//5
f 5//6 10//6 17//6 15//6
f 6//1 5//1 15//1 16//1
f 20//4 19//4 54//4 56//4
f 44//7 10//7 20//7 56//7
f 10//2 4//2 19//2 20//2
f 33//1 34//1 24//1 22//1
f 34//8 39//8 28//8 24//8
f 28//9 53//9 54//9 26//9
f 50//8 52//8 51//8 49//8
f 28//9 26//9 22//9 24//9
f 27//4 25//4 48//4 43//4
f 43//4 48//4 47//4 42//4
f 42//4 47//4 46//4 41//4
f 41//4 46//4 45//4 40//4
f 40//4 45//4 44//4 39//4
f 23//8 27//8 43//8 38//8
f 38//8 43//8 42//8 37//8
f 37//8 42//8 41//8 36//8
f 36//8 41//8 40//8 35//8
f 39//4 51//4 52//4 40//4
f 21//1 23//1 38//1 29//1
f 29//1 38//1 37//1 30//1
f 30//1 37//1 36//1 31//1
f 31//1 36//1 35//1 32//1
f 32//1 35//1 34//1 33//1
f 40//10 52//10 50//10 35//10
f 34//11 49//11 51//11 39//11
f 35//1 50//1 49//1 34//1
f 55//4 56//4 54//4 53//4
f 44//12 56//12 55//12 39//12
f 39//8 55//8 53//8 28//8
f 26//2 54//2 56//2 44//2
