# Blender v2.79 (sub 0) OBJ File: 'Level0.blend'
# www.blender.org
mtllib Level0.mtl
o Cube.001_Cube.002
v -11.104776 -4.492218 -1.220529
v -11.083295 2.618362 -1.220529
v -11.104776 -4.492218 -1.336497
v -11.083295 2.618362 -1.336497
v -3.976807 -1.637632 -1.220529
v -3.976807 -1.637632 -1.336497
v -6.006431 -3.114473 -1.336497
v -5.984949 2.618362 -1.336497
v -6.006431 -3.114473 -1.220529
v -5.984949 2.618362 -1.220529
v -11.104776 0.072119 -1.220529
v -11.104776 0.072119 -1.336497
v -3.976807 0.072119 -1.336497
v -3.976807 0.072119 -1.220529
v -6.006431 0.072119 -1.220529
v -6.006431 0.072119 -1.336497
vn -1.0000 0.0084 0.0000
vn 0.0000 0.0000 1.0000
vn 0.5884 -0.8086 0.0000
vn 0.0000 1.0000 0.0000
vn 0.2609 -0.9654 0.0000
vn 0.0000 0.0000 -1.0000
vn 1.0000 0.0000 0.0000
vn -1.0000 0.0000 0.0000
vn 1.0000 -0.0084 0.0000
usemtl None
s off
f 11//1 2//1 4//1 12//1
f 15//2 10//2 2//2 11//2
f 7//3 6//3 5//3 9//3
f 8//4 4//4 2//4 10//4
f 3//5 7//5 9//5 1//5
f 12//6 4//6 8//6 16//6
f 3//6 12//6 16//6 7//6
f 5//2 14//2 15//2 9//2
f 9//2 15//2 11//2 1//2
f 6//7 13//7 14//7 5//7
f 7//6 16//6 13//6 6//6
f 1//8 11//8 12//8 3//8
f 8//9 10//9 15//9 16//9
f 14//4 13//4 16//4 15//4
o Cube
v 4.529153 0.075665 -1.423818
v 4.529153 0.075665 1.359961
v 0.639711 0.075665 1.359961
v 0.639711 0.075665 -1.423819
v 4.529153 -0.075665 -1.423817
v 4.529152 -0.075665 1.359962
v 0.639710 -0.075665 1.359961
v 0.639711 -0.075665 -1.423818
v -3.969504 0.075671 4.925224
v -3.969503 0.075671 -4.315025
v -3.969504 -0.075659 4.925223
v -3.969504 -0.075659 -4.315023
v -5.955081 0.075677 4.925224
v -5.955080 0.075677 -4.315025
v -5.955081 -0.075653 4.925223
v -5.955081 -0.075653 -4.315023
v -6.455081 0.075677 4.925224
v -6.455080 0.075677 -4.315025
v -6.455081 -0.075653 4.925223
v -6.455081 -0.075653 -4.315023
v -3.969503 0.075671 -4.891802
v -3.969504 -0.075659 -4.891800
v -5.955080 0.075677 -4.891802
v -5.955081 -0.075653 -4.891800
v -6.455080 0.075677 -4.891802
v -6.455081 -0.075653 -4.891800
v 0.817539 0.075663 -2.016373
v 0.817538 -0.075667 -2.016373
v -3.613848 0.075668 -4.720429
v -3.613849 -0.075662 -4.720428
v 4.529153 0.075664 -2.015918
v 0.639709 10.075665 -1.423845
v 4.529153 -0.075666 -2.015918
v 4.529150 10.075665 -1.423845
v -3.969506 10.075670 -4.315047
v -5.955083 10.075677 4.925202
v -5.955082 10.075677 -4.315047
v -6.455083 10.075677 4.925202
v -6.455082 10.075677 -4.315047
v -3.969506 10.075670 -4.891824
v -5.955082 10.075677 -4.891824
v -6.455082 10.075677 -4.891824
v 0.817536 10.075662 -2.016400
v -3.613851 10.075666 -4.720451
v 4.529150 10.075664 -2.015945
v 4.529153 0.075665 -0.498455
v 4.529153 0.075665 0.429472
v 0.639711 0.075665 0.429471
v 0.639711 0.075665 -0.498455
v 4.529153 -0.075665 -0.498454
v 4.529152 -0.075665 0.429472
v 0.639711 -0.075665 0.429471
v 0.639711 -0.075665 -0.498455
v -3.955911 0.075671 0.772836
v -3.955911 0.075671 -1.242267
v -3.969504 -0.075659 0.975407
v -3.969504 -0.075659 -0.931069
v -5.955081 0.075677 0.772836
v -5.992384 0.075677 -1.246350
v -5.955081 -0.075653 0.975407
v -6.455081 0.075677 0.975407
v -6.455080 0.075677 -1.326372
v -6.455081 -0.075653 0.975407
v -6.455083 10.075677 0.975393
v -6.455083 10.075677 -1.321295
v -5.955083 10.075677 0.975393
v -5.955083 10.075677 -1.176365
v -6.492384 0.075677 -1.338801
v -3.969503 -0.966312 -1.331744
v -5.992384 -0.966305 -1.330940
v -6.455080 -0.966305 -1.326372
v -6.492384 -0.966305 -1.338801
v -5.955083 10.075677 0.022155
v -5.955081 2.559663 -1.208284
v -5.955082 2.559663 0.772831
v -5.955082 2.559663 0.022332
vn 0.0000 1.0000 0.0000
vn 0.0000 -1.0000 0.0000
vn 1.0000 -0.0000 0.0000
vn -0.0000 0.0000 1.0000
vn 0.9578 -0.0000 0.2874
vn 0.6118 -0.0000 0.7910
vn 0.0997 0.0404 -0.9942
vn 0.0000 -0.0000 -1.0000
vn -0.5314 0.0000 0.8471
vn -1.0000 0.0000 0.0000
vn 0.5209 -0.0000 -0.8536
vn -0.7517 -0.0000 -0.6595
vn 0.0001 -0.0000 -1.0000
vn -0.4341 0.0000 0.9009
vn -0.2406 -0.0032 0.9706
vn 1.0000 -0.0019 0.0015
vn -0.3161 0.0000 0.9487
vn -0.0008 -0.0832 0.9965
vn -0.0812 -0.0404 0.9959
usemtl Material
s off
f 63//10 64//10 19//10 18//10
f 67//11 22//11 23//11 68//11
f 63//12 18//12 22//12 67//12
f 18//13 19//13 23//13 22//13
f 69//11 73//11 28//11 24//11
f 24//11 44//11 49//11 21//11
f 28//12 38//12 37//12 26//12
f 24//14 44//14 43//14 20//14
f 64//10 70//10 25//10 19//10
f 19//15 25//15 27//15 23//15
f 36//11 42//11 40//11 32//11
f 70//10 74//10 29//10 25//10
f 75//16 86//16 88//16 84//16
f 25//13 29//13 31//13 27//13
f 47//12 61//12 50//12 17//12
f 29//13 33//13 35//13 31//13
f 38//17 40//17 39//17 37//17
f 40//17 42//17 41//17 39//17
f 32//11 40//11 38//11 28//11
f 20//18 48//18 51//18 26//18
f 34//19 41//19 42//19 36//19
f 26//13 51//13 53//13 30//13
f 44//20 46//20 45//20 43//20
f 34//19 55//19 58//19 41//19
f 28//11 46//11 44//11 24//11
f 26//21 45//21 46//21 28//21
f 49//22 44//22 43//22 47//22
f 82//10 80//10 54//10 52//10
f 17//13 50//13 48//13 20//13
f 21//12 49//12 47//12 17//12
f 38//23 46//23 45//23 37//23
f 39//17 57//17 56//17 37//17
f 38//10 28//10 46//10
f 53//10 57//10 58//10 55//10
f 51//10 56//10 57//10 53//10
f 48//10 59//10 60//10 51//10
f 50//10 61//10 59//10 48//10
f 51//11 56//11 60//11
f 41//17 58//17 57//17 39//17
f 29//13 52//13 54//13 33//13
f 45//23 60//23 56//23 37//23
f 74//12 91//12 82//12 52//12 29//12
f 78//19 81//19 55//19 34//19
f 45//20 60//20 59//20 43//20
f 43//22 59//22 61//22 47//22
f 33//19 54//19 80//19 77//19
f 75//24 90//24 83//24 81//24 78//24
f 30//25 53//25 83//25 90//25 75//25
f 53//10 55//10 81//10 83//10
f 83//10 81//10 80//10 82//10 89//10
f 31//11 35//11 79//11 76//11
f 33//19 77//19 79//19 35//19
f 27//11 31//11 76//11 72//11
f 26//10 30//10 75//10 71//10
f 20//10 26//10 71//10 65//10
f 65//10 71//10 70//10 64//10
f 23//11 27//11 72//11 68//11
f 68//11 72//11 73//11 69//11
f 17//12 62//12 66//12 21//12
f 62//12 63//12 67//12 66//12
f 21//11 66//11 69//11 24//11
f 66//11 67//11 68//11 69//11
f 17//10 20//10 65//10 62//10
f 62//10 65//10 64//10 63//10
f 92//12 90//12 83//12 89//12
f 87//11 88//11 86//11
f 84//26 88//26 87//26 78//26
f 75//27 86//27 85//27 71//27
f 78//28 87//28 86//28 75//28
f 91//12 92//12 89//12 82//12
o Stairs_Cube.001
v -3.945745 -0.186737 -1.225754
v -3.945745 0.068587 -1.225754
v -3.945745 -0.186737 0.750823
v -3.945745 0.068587 0.750823
v -2.842555 -0.186737 -1.225754
v -2.842555 0.068587 -1.225754
v -2.842555 -0.186737 0.750823
v -2.842555 0.068587 0.750823
v -3.945745 -0.480599 0.750823
v -3.945745 -0.480599 -1.225754
v -2.842555 -0.480599 0.750823
v -2.842555 -0.480599 -1.225754
v -4.263171 -0.186737 0.750823
v -4.263171 -0.186737 -1.225754
v -4.263171 -0.480599 0.750823
v -4.263171 -0.480599 -1.225754
v -3.945745 -0.774461 0.750823
v -3.945745 -0.774461 -1.225754
v -4.263171 -0.774461 0.750823
v -4.263171 -0.774461 -1.225754
v -4.580597 -0.480599 0.750823
v -4.580597 -0.480599 -1.225754
v -4.580597 -0.774461 0.750823
v -4.580597 -0.774461 -1.225754
v -4.263171 -1.068323 0.750823
v -4.263171 -1.068323 -1.225754
v -4.580597 -1.068323 0.750823
v -4.580597 -1.068323 -1.225754
v -4.898023 -0.774461 0.750823
v -4.898023 -0.774461 -1.225754
v -4.898023 -1.068323 0.750823
v -4.898023 -1.068323 -1.225754
v -4.580597 -1.362185 0.750823
v -4.580597 -1.362185 -1.225754
v -4.898023 -1.362185 0.750823
v -4.898023 -1.362185 -1.225754
v -5.215449 -1.068323 0.750823
v -5.215449 -1.068323 -1.225754
v -5.215449 -1.362185 0.750823
v -5.215449 -1.362185 -1.225754
v -4.898023 -1.656047 0.750823
v -4.898023 -1.656047 -1.225754
v -5.215449 -1.656047 0.750823
v -5.215449 -1.656047 -1.225754
v -5.532875 -1.362185 0.750823
v -5.532875 -1.362185 -1.225754
v -5.532875 -1.656047 0.750823
v -5.532875 -1.656047 -1.225754
v -1.946220 0.068587 0.750823
v -1.946220 -0.186737 0.750823
v -1.946220 -0.186737 -1.225754
v -1.946220 0.068587 -1.225754
vn -1.0000 0.0000 0.0000
vn 0.0000 0.0000 1.0000
vn 0.0000 1.0000 0.0000
vn 0.0000 0.0000 -1.0000
vn 0.0000 -1.0000 0.0000
vn 1.0000 0.0000 0.0000
usemtl None
s off
f 93//29 95//29 96//29 94//29
f 95//30 99//30 100//30 96//30
f 100//31 141//31 144//31 98//31
f 97//32 93//32 94//32 98//32
f 97//32 104//32 102//32 93//32
f 100//31 98//31 94//31 96//31
f 101//33 102//33 104//33 103//33
f 95//30 101//30 103//30 99//30
f 101//34 109//34 110//34 102//34
f 99//34 103//34 104//34 97//34
f 106//29 108//29 107//29 105//29
f 95//30 105//30 107//30 101//30
f 93//31 106//31 105//31 95//31
f 102//32 108//32 106//32 93//32
f 109//33 111//33 112//33 110//33
f 107//30 113//30 115//30 111//30
f 102//32 110//32 112//32 108//32
f 107//30 111//30 109//30 101//30
f 114//29 116//29 115//29 113//29
f 108//31 114//31 113//31 107//31
f 112//32 116//32 114//32 108//32
f 112//32 118//32 120//32 116//32
f 117//33 119//33 120//33 118//33
f 119//34 125//34 126//34 120//34
f 111//34 117//34 118//34 112//34
f 115//30 119//30 117//30 111//30
f 122//29 124//29 123//29 121//29
f 115//30 121//30 123//30 119//30
f 116//31 122//31 121//31 115//31
f 120//32 124//32 122//32 116//32
f 125//33 127//33 128//33 126//33
f 120//32 126//32 128//32 124//32
f 123//30 127//30 125//30 119//30
f 123//30 129//30 131//30 127//30
f 130//29 132//29 131//29 129//29
f 128//32 134//32 136//32 132//32
f 128//32 132//32 130//32 124//32
f 124//31 130//31 129//31 123//31
f 133//33 135//33 136//33 134//33
f 127//34 133//34 134//34 128//34
f 131//30 135//30 133//30 127//30
f 131//30 137//30 139//30 135//30
f 138//29 140//29 139//29 137//29
f 135//33 139//33 140//33 136//33
f 132//31 138//31 137//31 131//31
f 136//32 140//32 138//32 132//32
f 142//34 143//34 144//34 141//34
f 99//30 142//30 141//30 100//30
f 98//32 144//32 143//32 97//32
f 97//33 143//33 142//33 99//33
o Stairs.001_Cube.003
v -5.532119 -1.616503 -1.225754
v -5.532119 -1.361180 -1.225754
v -5.532119 -1.616503 0.750823
v -5.532119 -1.361180 0.750823
v -4.428930 -1.616503 -1.225754
v -4.428930 -1.361180 -1.225754
v -4.428930 -1.616503 0.750823
v -4.428930 -1.361180 0.750823
v -5.532119 -1.910365 0.750823
v -5.532119 -1.910365 -1.225754
v -4.428930 -1.910365 0.750823
v -4.428930 -1.910365 -1.225754
v -5.849545 -1.616503 0.750823
v -5.849545 -1.616503 -1.225754
v -5.849545 -1.910365 0.750823
v -5.849545 -1.910365 -1.225754
v -5.532119 -2.204227 0.750823
v -5.532119 -2.204227 -1.225754
v -5.849545 -2.204227 0.750823
v -5.849545 -2.204227 -1.225754
v -6.166972 -1.910365 0.750823
v -6.166972 -1.910365 -1.225754
v -6.166972 -2.204227 0.750823
v -6.166972 -2.204227 -1.225754
v -5.849545 -2.498089 0.750823
v -5.849545 -2.498089 -1.225754
v -6.166972 -2.498089 0.750823
v -6.166972 -2.498089 -1.225754
v -6.484398 -2.204227 0.750823
v -6.484398 -2.204227 -1.225754
v -6.484398 -2.498089 0.750823
v -6.484398 -2.498089 -1.225754
v -6.166972 -2.791952 0.750823
v -6.166972 -2.791952 -1.225754
v -6.484398 -2.791952 0.750823
v -6.484398 -2.791952 -1.225754
v -6.801824 -2.498089 0.750823
v -6.801824 -2.498089 -1.225754
v -6.801824 -2.791952 0.750823
v -6.801824 -2.791952 -1.225754
v -6.484398 -3.085814 0.750823
v -6.484398 -3.085814 -1.225754
v -6.801824 -3.085814 0.750823
v -6.801824 -3.085814 -1.225754
v -7.119250 -2.791952 0.750823
v -7.119250 -2.791952 -1.225754
v -7.119250 -3.085814 0.750823
v -7.119250 -3.085814 -1.225754
v -3.532594 -1.361180 0.750823
v -3.532594 -1.616503 0.750823
v -3.532594 -1.616503 -1.225754
v -3.532594 -1.361180 -1.225754
vn -1.0000 0.0000 0.0000
vn 0.0000 0.0000 1.0000
vn 0.0000 1.0000 0.0000
vn 0.0000 0.0000 -1.0000
vn 0.0000 -1.0000 0.0000
vn 1.0000 0.0000 0.0000
usemtl None
s off
f 145//35 147//35 148//35 146//35
f 147//36 151//36 152//36 148//36
f 152//37 193//37 196//37 150//37
f 149//38 145//38 146//38 150//38
f 149//38 156//38 154//38 145//38
f 152//37 150//37 146//37 148//37
f 153//39 154//39 156//39 155//39
f 147//36 153//36 155//36 151//36
f 153//40 161//40 162//40 154//40
f 151//40 155//40 156//40 149//40
f 158//35 160//35 159//35 157//35
f 147//36 157//36 159//36 153//36
f 145//37 158//37 157//37 147//37
f 154//38 160//38 158//38 145//38
f 161//39 163//39 164//39 162//39
f 159//36 165//36 167//36 163//36
f 154//38 162//38 164//38 160//38
f 159//36 163//36 161//36 153//36
f 166//35 168//35 167//35 165//35
f 160//37 166//37 165//37 159//37
f 164//38 168//38 166//38 160//38
f 164//38 170//38 172//38 168//38
f 169//39 171//39 172//39 170//39
f 171//40 177//40 178//40 172//40
f 163//40 169//40 170//40 164//40
f 167//36 171//36 169//36 163//36
f 174//35 176//35 175//35 173//35
f 167//36 173//36 175//36 171//36
f 168//37 174//37 173//37 167//37
f 172//38 176//38 174//38 168//38
f 177//39 179//39 180//39 178//39
f 172//38 178//38 180//38 176//38
f 175//36 179//36 177//36 171//36
f 175//36 181//36 183//36 179//36
f 182//35 184//35 183//35 181//35
f 180//38 186//38 188//38 184//38
f 180//38 184//38 182//38 176//38
f 176//37 182//37 181//37 175//37
f 185//39 187//39 188//39 186//39
f 179//40 185//40 186//40 180//40
f 183//36 187//36 185//36 179//36
f 183//36 189//36 191//36 187//36
f 190//35 192//35 191//35 189//35
f 187//39 191//39 192//39 188//39
f 184//37 190//37 189//37 183//37
f 188//38 192//38 190//38 184//38
f 194//40 195//40 196//40 193//40
f 151//36 194//36 193//36 152//36
f 150//38 196//38 195//38 149//38
f 149//39 195//39 194//39 151//39
