# Blender v2.79 (sub 0) OBJ File: 'sticktop.blend'
# www.blender.org
mtllib sticktop.mtl
o Cube_Cube.001
v 0.062626 2.165600 0.162951
v 0.062626 2.165600 -0.001790
v 0.227366 2.165600 0.162951
v 0.227366 2.165600 -0.001790
v 0.064998 3.070578 0.079998
v 0.064998 3.070578 -0.079997
v 0.224993 3.070578 0.079998
v 0.224993 3.070578 -0.079997
v 0.220212 3.769523 0.007486
v 0.220212 3.769523 -0.126497
v 0.354195 3.769523 0.007486
v 0.354195 3.769523 -0.126497
v 0.271054 4.591699 0.016150
v 0.271054 4.591699 -0.016150
v 0.303353 4.591699 0.016150
v 0.303353 4.591699 -0.016150
v 0.225293 2.956161 0.090485
v 0.064698 2.956161 0.090485
v 0.064698 2.956161 -0.070110
v 0.225293 2.956161 -0.070110
v 0.064998 3.308256 -0.279875
v 0.224993 3.308256 -0.279875
v 0.064698 3.213434 -0.344667
v 0.225293 3.213434 -0.344667
v -0.052173 3.984823 -0.264778
v 0.027362 3.984823 -0.264778
v -0.052323 3.937687 -0.296986
v 0.027511 3.937687 -0.296986
v 0.036124 2.004009 0.166058
v 0.045419 2.078366 0.001572
v 0.200610 2.004009 0.166058
v 0.209904 2.078366 0.001572
v 0.227366 2.780850 0.297756
v 0.062626 2.780850 0.297756
v 0.045419 2.750498 0.379598
v 0.209904 2.750498 0.379598
v 0.342345 3.280764 0.261609
v 0.263785 3.280764 0.261609
v 0.255580 3.250411 0.300637
v 0.334018 3.250411 0.300637
v 0.200610 2.004009 0.166058
v 0.209904 2.078366 0.001572
vn -0.9848 0.1733 0.0113
vn 0.0000 0.0913 0.9958
vn 0.0000 -0.2750 0.9614
vn -0.0000 -0.0385 -0.9993
vn 0.9845 -0.1753 -0.0118
vn 0.9833 -0.1818 0.0000
vn 0.0000 -0.7297 -0.6838
vn 1.0000 0.0026 0.0000
vn -1.0000 0.0026 0.0000
vn -0.9981 0.0617 0.0000
vn -0.9762 0.2168 0.0000
vn 0.0000 0.1032 0.9947
vn 0.0000 -0.0664 -0.9978
vn 0.0000 1.0000 0.0000
vn 0.0000 -0.0105 0.9999
vn 0.0000 0.1330 -0.9911
vn 0.9981 0.0617 0.0000
vn 0.0000 -0.0861 -0.9963
vn 0.0000 -0.0223 0.9998
vn -1.0000 0.0023 0.0023
vn 1.0000 0.0023 0.0023
vn 0.0000 0.6436 0.7653
vn 0.0000 0.5642 -0.8257
vn 0.0000 0.0657 -0.9978
vn -0.9520 -0.1705 0.2540
vn 0.8831 0.2666 -0.3861
vn 0.0000 0.1560 0.9878
vn 0.0000 0.2140 -0.9768
vn 0.9490 -0.0842 0.3038
vn -0.9501 0.0834 -0.3005
vn 0.0000 0.7894 0.6139
vn -0.9249 0.3801 -0.0036
vn 0.9705 -0.2210 0.0961
vn 0.0000 -0.0721 -0.9974
usemtl None
s off
f 30//1 29//1 1//1 2//1
f 18//2 17//2 7//2 5//2
f 29//3 31//3 36//3 35//3
f 32//4 30//4 2//4 4//4
f 31//5 32//5 4//5 3//5
f 7//6 8//6 12//6 11//6
f 20//7 19//7 23//7 24//7
f 17//8 20//8 8//8 7//8
f 19//9 18//9 5//9 6//9
f 10//10 9//10 13//10 14//10
f 6//11 5//11 9//11 10//11
f 5//12 7//12 11//12 9//12
f 8//13 6//13 10//13 12//13
f 16//14 14//14 13//14 15//14
f 9//15 11//15 15//15 13//15
f 12//16 10//16 14//16 16//16
f 11//17 12//17 16//17 15//17
f 2//9 1//9 18//9 19//9
f 3//8 4//8 20//8 17//8
f 4//18 2//18 19//18 20//18
f 1//2 3//2 17//2 18//2
f 21//19 22//19 26//19 25//19
f 19//20 6//20 21//20 23//20
f 8//21 20//21 24//21 22//21
f 6//22 8//22 22//22 21//22
f 28//23 27//23 25//23 26//23
f 24//24 23//24 27//24 28//24
f 23//25 21//25 25//25 27//25
f 22//26 24//26 28//26 26//26
f 35//27 36//27 40//27 39//27
f 3//28 1//28 34//28 33//28
f 31//29 3//29 33//29 36//29
f 1//30 29//30 35//30 34//30
f 39//31 40//31 37//31 38//31
f 34//32 35//32 39//32 38//32
f 36//33 33//33 37//33 40//33
f 33//34 34//34 38//34 37//34
l 41 42
o BezierCircle
v -0.051105 0.000000 -0.054783
v -0.050638 0.000000 -0.061716
v -0.049279 0.000000 -0.068366
v -0.047087 0.000000 -0.074672
v -0.044126 0.000000 -0.080573
v -0.040454 0.000000 -0.086008
v -0.036133 0.000000 -0.090916
v -0.031225 0.000000 -0.095237
v -0.025790 0.000000 -0.098909
v -0.019889 0.000000 -0.101870
v -0.013583 0.000000 -0.104062
v -0.006933 0.000000 -0.105421
v 0.000000 0.000000 -0.105888
v 0.006933 0.000000 -0.105421
v 0.013583 0.000000 -0.104062
v 0.019889 0.000000 -0.101870
v 0.025790 0.000000 -0.098909
v 0.031225 0.000000 -0.095237
v 0.036133 0.000000 -0.090916
v 0.040454 0.000000 -0.086008
v 0.044126 0.000000 -0.080573
v 0.047087 0.000000 -0.074672
v 0.049279 0.000000 -0.068366
v 0.050638 0.000000 -0.061716
v 0.051105 0.000000 -0.054783
v 0.050638 0.000000 -0.047850
v 0.049279 0.000000 -0.041200
v 0.047087 0.000000 -0.034894
v 0.044126 0.000000 -0.028993
v 0.040454 0.000000 -0.023558
v 0.036133 0.000000 -0.018650
v 0.031225 0.000000 -0.014329
v 0.025790 0.000000 -0.010657
v 0.019889 0.000000 -0.007696
v 0.013583 0.000000 -0.005504
v 0.006933 0.000000 -0.004145
v 0.000000 0.000000 -0.003678
v -0.006933 0.000000 -0.004145
v -0.013583 0.000000 -0.005504
v -0.019889 0.000000 -0.007696
v -0.025790 0.000000 -0.010657
v -0.031225 0.000000 -0.014329
v -0.036133 0.000000 -0.018650
v -0.040454 0.000000 -0.023558
v -0.044126 0.000000 -0.028993
v -0.047087 0.000000 -0.034894
v -0.049279 0.000000 -0.041200
v -0.050638 0.000000 -0.047850
l 43 44
l 44 45
l 45 46
l 46 47
l 47 48
l 48 49
l 49 50
l 50 51
l 51 52
l 52 53
l 53 54
l 54 55
l 55 56
l 56 57
l 57 58
l 58 59
l 59 60
l 60 61
l 61 62
l 62 63
l 63 64
l 64 65
l 65 66
l 66 67
l 67 68
l 68 69
l 69 70
l 70 71
l 71 72
l 72 73
l 73 74
l 74 75
l 75 76
l 76 77
l 77 78
l 78 79
l 79 80
l 80 81
l 81 82
l 82 83
l 83 84
l 84 85
l 85 86
l 86 87
l 87 88
l 88 89
l 89 90
l 90 43
