# Blender v2.79 (sub 0) OBJ File: 'torch.blend'
# www.blender.org
mtllib torch.mtl
o Cylinder
v -0.000000 -0.122629 0.000000
v -0.000000 1.619648 -0.343018
v -0.000000 -0.122629 0.000000
v 0.297062 1.619648 -0.171509
v -0.000000 -0.122629 0.000000
v 0.297062 1.619648 0.171509
v -0.000000 -0.122629 0.000000
v -0.000000 1.619648 0.343018
v -0.000000 -0.122629 0.000000
v -0.297062 1.619648 0.171509
v -0.000000 -0.122629 0.000000
v -0.297062 1.619648 -0.171509
v -0.000000 0.132962 -0.150790
v 0.130588 0.132962 -0.075395
v 0.130588 0.132962 0.075395
v -0.000000 0.132962 0.150790
v -0.130588 0.132962 0.075395
v -0.130588 0.132962 -0.075395
v 0.099722 -0.066418 -0.057575
v 0.099722 -0.066418 0.057575
v -0.000000 -0.066418 0.115149
v -0.099722 -0.066418 0.057575
v -0.099722 -0.066418 -0.057575
v -0.000000 -0.066418 -0.115149
v -0.000000 1.993799 -0.279263
v 0.241849 1.993799 -0.139632
v 0.241849 1.993799 0.139632
v -0.000000 1.993799 0.279263
v -0.241849 1.993799 0.139632
v -0.241849 1.993799 -0.139632
v 0.000000 1.923863 -0.225281
v 0.195099 1.923863 -0.112641
v 0.195099 1.923863 0.112641
v -0.000000 1.923863 0.225281
v -0.195099 1.923863 0.112641
v -0.195099 1.923863 -0.112641
v -0.000000 1.126286 -0.216727
v 0.187691 1.126286 -0.108363
v 0.187691 1.126286 0.108363
v -0.000000 1.126286 0.216727
v -0.187691 1.126286 0.108363
v -0.187691 1.126286 -0.108363
v -0.000000 1.403918 -0.241229
v 0.208911 1.403918 -0.120615
v 0.208911 1.403918 0.120615
v -0.000000 1.403918 0.241229
v -0.208911 1.403918 0.120615
v -0.208911 1.403918 -0.120615
v -0.268415 1.830730 0.154970
v -0.260957 1.864313 0.150664
v -0.260957 1.864313 -0.150664
v -0.268415 1.830730 -0.154970
v -0.000000 1.830730 -0.309939
v -0.000000 1.864313 -0.301327
v 0.260957 1.864313 -0.150664
v 0.268415 1.830730 -0.154970
v 0.268415 1.830730 0.154970
v 0.260957 1.864313 0.150664
v -0.000000 1.864313 0.301327
v -0.000000 1.830730 0.309939
v -0.268415 1.830730 0.154970
v -0.260957 1.864313 0.150664
v -0.260957 1.864313 -0.150664
v -0.268415 1.830730 -0.154970
v -0.000000 1.830730 -0.309939
v -0.000000 1.864313 -0.301327
v 0.260957 1.864313 -0.150664
v 0.268415 1.830730 -0.154970
v 0.268415 1.830730 0.154970
v 0.260957 1.864313 0.150664
v -0.000000 1.864313 0.301327
v -0.000000 1.830730 0.309939
v -0.282115 1.728446 -0.162879
v -0.287513 1.690009 -0.165996
v 0.282115 1.728446 -0.162879
v 0.287513 1.690009 -0.165996
v -0.000000 1.728446 0.325759
v -0.000000 1.690009 0.331992
v -0.287513 1.690009 0.165996
v -0.282115 1.728446 0.162879
v -0.000000 1.690009 -0.331992
v -0.000000 1.728446 -0.325759
v 0.287513 1.690009 0.165996
v 0.282115 1.728446 0.162879
v -0.296165 1.830730 0.170991
v -0.287936 1.864313 0.166240
v -0.287936 1.864313 -0.166240
v -0.296165 1.830730 -0.170991
v -0.000000 1.830730 -0.341982
v -0.000000 1.864313 -0.332480
v 0.287936 1.864313 -0.166240
v 0.296165 1.830730 -0.170991
v 0.296165 1.830730 0.170991
v 0.287936 1.864313 0.166240
v -0.000000 1.864313 0.332480
v -0.000000 1.830730 0.341982
v -0.311282 1.728446 -0.179718
v -0.317237 1.690009 -0.183157
v 0.311282 1.728446 -0.179718
v 0.317237 1.690009 -0.183157
v -0.000000 1.728446 0.359437
v -0.000000 1.690009 0.366314
v -0.317237 1.690009 0.183157
v -0.311282 1.728446 0.179718
v -0.000000 1.690009 -0.366314
v -0.000000 1.728446 -0.359437
v 0.317237 1.690009 0.183157
v 0.311282 1.728446 0.179718
v 0.000000 2.445255 -0.141421
v 0.000000 2.303833 -0.200000
v 0.000000 2.162412 -0.141421
v 0.100000 2.445255 -0.100000
v 0.141421 2.303833 -0.141421
v 0.100000 2.162412 -0.100000
v 0.141421 2.445255 0.000000
v 0.200000 2.303833 0.000000
v 0.141421 2.162412 0.000000
v 0.100000 2.445255 0.100000
v 0.141421 2.303833 0.141421
v 0.100000 2.162412 0.100000
v 0.000000 2.103833 0.000000
v 0.000000 2.445255 0.141421
v 0.000000 2.303833 0.200000
v 0.000000 2.162412 0.141421
v 0.000000 2.503834 0.000000
v -0.100000 2.445255 0.100000
v -0.141421 2.303833 0.141421
v -0.100000 2.162412 0.100000
v -0.141421 2.445255 0.000000
v -0.200000 2.303833 0.000000
v -0.141421 2.162412 0.000000
v -0.100000 2.445255 -0.100000
v -0.141421 2.303833 -0.141421
v -0.100000 2.162412 -0.100000
vn 0.4628 -0.3783 -0.8017
vn 0.9257 -0.3783 0.0000
vn 0.4629 -0.3783 0.8017
vn -0.4628 -0.3783 0.8017
vn -0.9893 0.1460 0.0000
vn -0.9257 -0.3783 0.0000
vn -0.4629 -0.3783 -0.8017
vn 0.0000 0.0000 1.0000
vn -0.4941 -0.1530 -0.8558
vn -0.9882 -0.1530 0.0000
vn -0.4941 -0.1530 0.8558
vn 0.4941 -0.1530 0.8558
vn 0.9882 -0.1530 0.0000
vn 0.4941 -0.1530 -0.8558
vn 0.2455 -0.8711 -0.4253
vn 0.4910 -0.8711 0.0000
vn 0.2455 -0.8711 0.4253
vn -0.2455 -0.8711 0.4253
vn -0.4910 -0.8711 0.0000
vn -0.2455 -0.8711 -0.4253
vn 0.4157 0.5557 0.7200
vn 0.4946 0.1460 -0.8567
vn 0.4946 0.1460 0.8567
vn -0.4946 0.1460 -0.8567
vn -0.4946 0.1460 0.8567
vn 0.9893 0.1460 -0.0000
vn 0.0000 1.0000 -0.0000
vn 0.4157 0.5557 -0.7200
vn -0.8314 0.5557 -0.0000
vn 0.8314 0.5557 0.0000
vn -0.4157 0.5557 -0.7200
vn -0.4157 0.5557 0.7200
vn -0.4992 -0.0574 -0.8646
vn -0.9984 -0.0574 0.0000
vn -0.4992 -0.0574 0.8646
vn 0.4992 -0.0574 0.8646
vn 0.9984 -0.0574 0.0000
vn 0.4992 -0.0574 -0.8646
vn -0.4985 -0.0762 -0.8635
vn -0.9971 -0.0762 0.0000
vn -0.4985 -0.0762 0.8635
vn 0.4985 -0.0762 0.8635
vn 0.9971 -0.0762 0.0000
vn 0.4985 -0.0762 -0.8635
vn 0.9911 0.1328 0.0000
vn -0.4956 0.1328 0.8584
vn -0.4956 0.1328 -0.8584
vn 0.4956 0.1328 0.8584
vn 0.4956 0.1328 -0.8584
vn -0.9911 0.1328 0.0000
vn 0.0000 -1.0000 0.0000
vn -0.9909 0.1345 0.0000
vn 0.4955 0.1345 -0.8582
vn 0.4955 0.1345 0.8582
vn -0.4955 0.1345 -0.8582
vn -0.4955 0.1345 0.8582
vn 0.9909 0.1345 0.0000
vn 0.9713 0.2380 0.0000
vn -0.4856 0.2380 0.8411
vn -0.4856 0.2380 -0.8411
vn 0.4856 0.2380 0.8411
vn 0.4856 0.2380 -0.8411
vn -0.9713 0.2380 0.0000
vn -0.9882 0.1531 0.0000
vn 0.4941 0.1531 -0.8558
vn 0.4941 0.1531 0.8558
vn -0.4941 0.1531 -0.8558
vn -0.4941 0.1531 0.8558
vn 0.9882 0.1531 0.0000
vn 0.3574 -0.3574 -0.8629
vn 0.1566 0.9125 -0.3780
vn 0.1566 -0.9125 -0.3780
vn 0.3574 0.3574 -0.8629
vn 0.3780 -0.9125 -0.1566
vn 0.8629 0.3574 -0.3574
vn 0.8629 -0.3574 -0.3574
vn 0.3780 0.9125 -0.1566
vn 0.3780 0.9125 0.1566
vn 0.3780 -0.9125 0.1566
vn 0.8629 0.3574 0.3574
vn 0.8629 -0.3574 0.3574
vn 0.3574 -0.3574 0.8629
vn 0.1566 0.9125 0.3780
vn 0.1566 -0.9125 0.3780
vn 0.3574 0.3574 0.8629
vn -0.3574 -0.3574 0.8629
vn -0.1566 0.9125 0.3780
vn -0.1566 -0.9125 0.3780
vn -0.3574 0.3574 0.8629
vn -0.8629 -0.3574 0.3574
vn -0.3780 0.9125 0.1566
vn -0.3780 -0.9125 0.1566
vn -0.8629 0.3574 0.3574
vn -0.8629 -0.3574 -0.3574
vn -0.3780 0.9125 -0.1566
vn -0.3780 -0.9125 -0.1566
vn -0.8629 0.3574 -0.3574
vn -0.3574 -0.3574 -0.8629
vn -0.1566 0.9125 -0.3780
vn -0.1566 -0.9125 -0.3780
vn -0.3574 0.3574 -0.8629
usemtl None
s off
f 43//1 2//1 4//1 44//1
f 44//2 4//2 6//2 45//2
f 45//3 6//3 8//3 46//3
f 46//4 8//4 10//4 47//4
f 51//5 50//5 29//5 30//5
f 47//6 10//6 12//6 48//6
f 48//7 12//7 2//7 43//7
f 1//8 3//8 5//8 7//8 9//8 11//8
f 23//9 18//9 13//9 24//9
f 22//10 17//10 18//10 23//10
f 21//11 16//11 17//11 22//11
f 20//12 15//12 16//12 21//12
f 19//13 14//13 15//13 20//13
f 24//14 13//14 14//14 19//14
f 1//15 24//15 19//15 3//15
f 3//16 19//16 20//16 5//16
f 5//17 20//17 21//17 7//17
f 7//18 21//18 22//18 9//18
f 9//19 22//19 23//19 11//19
f 11//20 23//20 24//20 1//20
f 25//21 30//21 36//21 31//21
f 55//22 54//22 25//22 26//22
f 59//23 58//23 27//23 28//23
f 54//24 51//24 30//24 25//24
f 50//25 59//25 28//25 29//25
f 58//26 55//26 26//26 27//26
f 32//27 31//27 36//27 35//27 34//27 33//27
f 29//28 28//28 34//28 35//28
f 27//29 26//29 32//29 33//29
f 30//30 29//30 35//30 36//30
f 28//31 27//31 33//31 34//31
f 26//32 25//32 31//32 32//32
f 18//33 42//33 37//33 13//33
f 17//34 41//34 42//34 18//34
f 16//35 40//35 41//35 17//35
f 15//36 39//36 40//36 16//36
f 14//37 38//37 39//37 15//37
f 13//38 37//38 38//38 14//38
f 42//39 48//39 43//39 37//39
f 41//40 47//40 48//40 42//40
f 40//41 46//41 47//41 41//41
f 39//42 45//42 46//42 40//42
f 38//43 44//43 45//43 39//43
f 37//44 43//44 44//44 38//44
f 84//45 75//45 56//45 57//45
f 49//8 60//8 72//8 61//8
f 80//46 77//46 60//46 49//46
f 51//8 54//8 66//8 63//8
f 82//47 73//47 52//47 53//47
f 56//8 53//8 65//8 68//8
f 77//48 84//48 57//48 60//48
f 55//8 58//8 70//8 67//8
f 75//49 82//49 53//49 56//49
f 50//8 51//8 63//8 62//8
f 73//50 80//50 49//50 52//50
f 53//8 52//8 64//8 65//8
f 69//51 68//51 92//51 93//51
f 73//27 82//27 106//27 97//27
f 70//27 71//27 95//27 94//27
f 81//51 74//51 98//51 105//51
f 72//51 69//51 93//51 96//51
f 84//27 77//27 101//27 108//27
f 54//8 55//8 67//8 66//8
f 60//8 57//8 69//8 72//8
f 59//8 50//8 62//8 71//8
f 52//8 49//8 61//8 64//8
f 57//8 56//8 68//8 69//8
f 58//8 59//8 71//8 70//8
f 12//52 10//52 79//52 74//52
f 63//27 66//27 90//27 87//27
f 4//53 2//53 81//53 76//53
f 78//51 83//51 107//51 102//51
f 8//54 6//54 83//54 78//54
f 65//51 64//51 88//51 89//51
f 2//55 12//55 74//55 81//55
f 75//27 84//27 108//27 99//27
f 10//56 8//56 78//56 79//56
f 62//27 63//27 87//27 86//27
f 6//57 4//57 76//57 83//57
f 82//27 75//27 99//27 106//27
f 93//58 92//58 91//58 94//58
f 85//59 96//59 95//59 86//59
f 89//60 88//60 87//60 90//60
f 96//61 93//61 94//61 95//61
f 92//62 89//62 90//62 91//62
f 88//63 85//63 86//63 87//63
f 98//64 103//64 104//64 97//64
f 100//65 105//65 106//65 99//65
f 102//66 107//66 108//66 101//66
f 105//67 98//67 97//67 106//67
f 103//68 102//68 101//68 104//68
f 107//69 100//69 99//69 108//69
f 74//51 79//51 103//51 98//51
f 68//51 65//51 89//51 92//51
f 79//51 78//51 102//51 103//51
f 67//27 70//27 94//27 91//27
f 80//27 73//27 97//27 104//27
f 66//27 67//27 91//27 90//27
f 77//27 80//27 104//27 101//27
f 61//51 72//51 96//51 85//51
f 76//51 81//51 105//51 100//51
f 64//51 61//51 85//51 88//51
f 83//51 76//51 100//51 107//51
f 71//27 62//27 86//27 95//27
f 111//70 110//70 113//70 114//70
f 109//71 125//71 112//71
f 121//72 111//72 114//72
f 110//73 109//73 112//73 113//73
f 121//74 114//74 117//74
f 113//75 112//75 115//75 116//75
f 114//76 113//76 116//76 117//76
f 112//77 125//77 115//77
f 115//78 125//78 118//78
f 121//79 117//79 120//79
f 116//80 115//80 118//80 119//80
f 117//81 116//81 119//81 120//81
f 120//82 119//82 123//82 124//82
f 118//83 125//83 122//83
f 121//84 120//84 124//84
f 119//85 118//85 122//85 123//85
f 124//86 123//86 127//86 128//86
f 122//87 125//87 126//87
f 121//88 124//88 128//88
f 123//89 122//89 126//89 127//89
f 128//90 127//90 130//90 131//90
f 126//91 125//91 129//91
f 121//92 128//92 131//92
f 127//93 126//93 129//93 130//93
f 131//94 130//94 133//94 134//94
f 129//95 125//95 132//95
f 121//96 131//96 134//96
f 130//97 129//97 132//97 133//97
f 134//98 133//98 110//98 111//98
f 132//99 125//99 109//99
f 121//100 134//100 111//100
f 133//101 132//101 109//101 110//101
