# Blender v2.79 (sub 0) OBJ File: 'wallspear.blend'
# www.blender.org
mtllib wallspear.mtl
o Cube
v 0.000000 -0.232392 2.830552
v -0.232392 0.000000 2.830552
v 0.000000 -0.201487 -2.496846
v -0.201487 0.000000 -2.496846
v 0.232392 0.000000 2.830552
v 0.000000 0.232392 2.830552
v 0.201487 0.000000 -2.496846
v 0.000000 0.201487 -2.496846
v 0.000000 -0.357141 2.884491
v -0.357141 0.000000 2.884491
v 0.000000 0.357141 2.884491
v 0.357141 0.000000 2.884491
v 0.000000 -0.288946 2.930018
v -0.288946 0.000000 2.930018
v 0.000000 0.288946 2.930018
v 0.288946 0.000000 2.930018
v 0.000000 -0.288946 2.950397
v -0.288946 0.000000 2.950397
v 0.000000 0.288946 2.950397
v 0.288946 0.000000 2.950397
v 0.000000 -0.288946 2.950397
v -0.288946 0.000000 2.950397
v 0.000000 0.288946 2.950397
v 0.288946 0.000000 2.950397
v 0.000000 -0.318629 2.950397
v -0.318629 0.000000 2.950397
v 0.000000 0.318629 2.950397
v 0.318629 0.000000 2.950397
v 0.000000 -0.413592 3.083333
v -0.413592 0.000000 3.083333
v 0.000000 0.413592 3.083333
v 0.413592 0.000000 3.083333
v 0.000000 0.000000 4.097331
vn -0.7071 -0.7071 -0.0041
vn 0.0000 0.0000 -1.0000
vn 0.7071 0.7071 -0.0041
vn -0.3689 -0.3689 -0.8531
vn 0.7071 -0.7071 -0.0041
vn -0.7071 0.7071 -0.0041
vn 0.4854 -0.4854 0.7271
vn 0.3689 -0.3689 -0.8531
vn -0.3689 0.3689 -0.8531
vn 0.3689 0.3689 -0.8531
vn -0.7071 0.7071 0.0000
vn -0.4854 -0.4854 0.7271
vn -0.4854 0.4854 0.7271
vn 0.4854 0.4854 0.7271
vn 0.0000 0.0000 1.0000
vn 0.7071 0.7071 0.0000
vn 0.7071 -0.7071 0.0000
vn -0.7071 -0.7071 0.0000
vn -0.6312 0.6312 -0.4509
vn 0.6794 -0.6794 0.2771
vn 0.6312 0.6312 -0.4509
vn 0.6312 -0.6312 -0.4509
vn -0.6312 -0.6312 -0.4509
vn -0.6794 -0.6794 0.2771
vn -0.6794 0.6794 0.2771
vn 0.6794 0.6794 0.2771
usemtl None
s off
f 1//1 2//1 4//1 3//1
f 3//2 4//2 8//2 7//2
f 7//3 8//3 6//3 5//3
f 2//4 1//4 9//4 10//4
f 3//5 7//5 5//5 1//5
f 8//6 4//6 2//6 6//6
f 9//7 12//7 16//7 13//7
f 1//8 5//8 12//8 9//8
f 6//9 2//9 10//9 11//9
f 5//10 6//10 11//10 12//10
f 15//11 14//11 18//11 19//11
f 10//12 9//12 13//12 14//12
f 11//13 10//13 14//13 15//13
f 12//14 11//14 15//14 16//14
f 20//15 19//15 23//15 24//15
f 16//16 15//16 19//16 20//16
f 13//17 16//17 20//17 17//17
f 14//18 13//18 17//18 18//18
f 21//2 24//2 28//2 25//2
f 17//15 20//15 24//15 21//15
f 18//15 17//15 21//15 22//15
f 19//15 18//15 22//15 23//15
f 27//19 26//19 30//19 31//19
f 22//2 21//2 25//2 26//2
f 23//2 22//2 26//2 27//2
f 24//2 23//2 27//2 28//2
f 29//20 32//20 33//20
f 28//21 27//21 31//21 32//21
f 25//22 28//22 32//22 29//22
f 26//23 25//23 29//23 30//23
f 30//24 29//24 33//24
f 31//25 30//25 33//25
f 32//26 31//26 33//26
